<svg width="79" height="52" viewBox="0 0 79 52" fill="none" xmlns="http://www.w3.org/2000/svg">
<path fill-rule="evenodd" clip-rule="evenodd" d="M31.9497 3.79984L29.7785 5.46997H34.1376L31.9497 3.79984ZM23.1314 12.7852L29.1105 23.6578V19.0315L27.7911 16.7267L23.1314 12.7852ZM26.4717 9.79564H37.361L38.5133 10.6975C38.7138 10.5138 38.9309 10.3468 39.148 10.1798C38.0123 9.19439 36.8933 8.22571 36.8599 8.17561H26.8391C26.8391 8.17561 25.7869 9.16099 24.7347 10.1297L25.4362 10.6975L26.4717 9.79564ZM22.6638 24.4761V18.2632L25.2191 22.9229L22.6638 24.4761ZM39.3651 17.5117V20.0002L34.8056 23.6912V26.0293L41.2691 20.8185V15.9751L39.3651 17.5117Z" fill="#66963F"/>
<path fill-rule="evenodd" clip-rule="evenodd" d="M29.3442 24.1588V24.259C29.3221 24.2741 29.2959 24.2821 29.2691 24.2821C29.2423 24.2821 29.2161 24.2741 29.1939 24.259L22.6971 12.4177L22.5969 12.3342L20.0082 10.1464V22.3384L22.5134 24.3759V17.7956C22.5131 17.7673 22.5231 17.7398 22.5415 17.7183C22.56 17.6968 22.5856 17.6827 22.6136 17.6787C22.6566 17.6619 22.7042 17.6619 22.7472 17.6787L29.4277 29.8373L31.9497 31.8748C31.9497 31.3905 31.9497 20.1839 31.9497 20.1839L29.4445 18.0628L29.3442 24.1588ZM43.1229 10.5639L40.4005 12.7852C36.91 15.7413 32.0499 19.783 32.0499 19.8832L29.3944 17.6119L22.8808 12.1338L20.1084 9.79564L22.1293 8.1255C22.2796 8.22571 31.9664 16.0753 31.9664 16.0753C31.9874 16.093 32.014 16.1027 32.0415 16.1027C32.069 16.1027 32.0956 16.093 32.1167 16.0753L42.0206 8.1255C42.1542 8.22571 43.841 9.59522 44.0247 9.79564L43.2064 10.4804L43.1229 10.5639ZM43.2732 10.7643L38.0122 15.1902L32.1 20.2006V31.8915L44.0414 22.2047V10.163L43.2732 10.781V10.7643ZM41.603 20.8018V15.6578C41.616 15.6257 41.616 15.5897 41.603 15.5576C41.5847 15.5412 41.5609 15.5321 41.5362 15.5321C41.5116 15.5321 41.4878 15.5412 41.4694 15.5576L34.7889 20.9521V26.1128C34.78 26.1311 34.7754 26.1511 34.7754 26.1713C34.7754 26.1916 34.78 26.2116 34.7889 26.2298C34.8321 26.2451 34.8793 26.2451 34.9225 26.2298L41.603 20.8185C41.6145 20.7861 41.6145 20.7507 41.603 20.7183V20.8018ZM26.839 7.85827H36.8599L39.2147 9.91253L41.6531 7.94178L37.9454 4.95223L31.9497 0.192352L22.2295 8.07537L24.6011 9.99604L26.7555 7.99189L26.839 7.85827ZM29.3609 5.57017L31.8661 3.54932C31.8872 3.53165 31.9138 3.52195 31.9413 3.52195C31.9688 3.52195 31.9954 3.53165 32.0165 3.54932L34.5551 5.57017C34.5668 5.59048 34.573 5.61353 34.573 5.63699C34.573 5.66044 34.5668 5.68347 34.5551 5.70378C34.5456 5.72739 34.5295 5.74781 34.5088 5.7626C34.4881 5.77739 34.4636 5.78596 34.4382 5.78729H29.4277C29.4023 5.78596 29.3778 5.77739 29.3571 5.7626C29.3364 5.74781 29.3203 5.72739 29.3108 5.70378C29.2991 5.68347 29.2929 5.66044 29.2929 5.63699C29.2929 5.61353 29.2991 5.59048 29.3108 5.57017" fill="#8CC541"/>
<path fill-rule="evenodd" clip-rule="evenodd" d="M29.4612 5.7873H34.4716C34.4976 5.78837 34.5232 5.78076 34.5444 5.76563C34.5655 5.75051 34.5811 5.72873 34.5885 5.70378C34.6002 5.68347 34.6064 5.66044 34.6064 5.63699C34.6064 5.61354 34.6002 5.59048 34.5885 5.57017L32.0499 3.54932C32.0288 3.53165 32.0022 3.52195 31.9747 3.52195C31.9472 3.52195 31.9206 3.53165 31.8995 3.54932L29.3943 5.57017C29.3826 5.59048 29.3764 5.61354 29.3764 5.63699C29.3764 5.66044 29.3826 5.68347 29.3943 5.70378C29.4039 5.72739 29.4199 5.74781 29.4406 5.7626C29.4613 5.7774 29.4858 5.78596 29.5113 5.7873H29.4612ZM32.0165 3.79983L34.2043 5.46997H29.862L32.0165 3.79983V3.79983ZM44.2586 9.77892C44.2674 9.79713 44.272 9.81713 44.272 9.83738C44.272 9.85764 44.2674 9.87763 44.2586 9.89584V22.1379C44.2586 22.1379 44.2586 22.3217 44.2586 22.3384L32.0666 32.2422H31.9497L29.1939 29.9876L22.7973 18.2966V24.6264C22.8076 24.6442 22.813 24.6644 22.813 24.6849C22.813 24.7054 22.8076 24.7256 22.7973 24.7434C22.7803 24.7556 22.7598 24.7622 22.7388 24.7622C22.7179 24.7622 22.6974 24.7556 22.6804 24.7434L19.9247 22.5221C19.9132 22.4896 19.9132 22.4543 19.9247 22.4219V9.87912L32.1334 0.0253314C32.1581 0.00881577 32.1872 0 32.2169 0C32.2466 0 32.2757 0.00881577 32.3004 0.0253314L44.2586 9.77892ZM31.9497 0.192355L38.0289 5.08584L41.7367 8.09209C41.4193 8.32591 40.4841 9.09417 39.2983 10.0461L36.9601 7.99189H26.9392L24.7848 9.99605L22.4132 8.07537L32.1334 0.192355H31.9497ZM39.2983 10.2132C38.1626 9.22779 37.0436 8.25909 37.0102 8.20899H26.9893C26.9893 8.20899 25.9205 9.19437 24.885 10.163L32.0499 15.9584L39.2147 10.2132H39.2983ZM31.8661 20.1171L29.4277 18.0461V24.1755C29.4365 24.1907 29.4412 24.208 29.4412 24.2256C29.4412 24.2432 29.4365 24.2605 29.4277 24.2757C29.4056 24.2908 29.3794 24.2989 29.3526 24.2989C29.3258 24.2989 29.2996 24.2908 29.2774 24.2757L22.7806 12.4344L22.6804 12.3509L20.0917 10.163V22.355L22.5969 24.3926V17.7956C22.588 17.7774 22.5834 17.7574 22.5834 17.7371C22.5834 17.7169 22.588 17.6969 22.5969 17.6787C22.6202 17.6669 22.6459 17.6608 22.672 17.6608C22.6981 17.6608 22.7239 17.6669 22.7472 17.6787L29.4277 29.8206L31.9497 31.8581L31.8661 20.1171ZM23.1313 12.7852L29.1104 23.6577V17.7956L23.1313 12.7852ZM31.9664 19.9167L40.317 12.8353L43.0394 10.5472L43.8577 9.86243C43.674 9.69542 41.9872 8.34261 41.8536 8.1923L32.0332 16.1254C32.0121 16.1431 31.9855 16.1528 31.958 16.1528C31.9305 16.1528 31.9039 16.1431 31.8828 16.1254C31.8828 16.1254 22.1961 8.27581 22.0457 8.1756L20.0249 9.84574L22.7973 12.1839L29.3108 17.6787L31.9664 19.9167ZM44.0414 22.1713V10.1297L43.2732 10.7476L38.0122 15.1735L32.1 20.1839V31.8748L44.0414 22.188V22.1713ZM41.4527 15.6077H41.3358L34.6553 21.0022V26.163C34.645 26.1807 34.6396 26.2009 34.6396 26.2214C34.6396 26.2419 34.645 26.2621 34.6553 26.2799C34.6738 26.2877 34.6936 26.2917 34.7137 26.2917C34.7338 26.2917 34.7537 26.2877 34.7722 26.2799L41.4527 20.8686C41.4642 20.8362 41.4642 20.8008 41.4527 20.7684V15.6244C41.4602 15.6087 41.464 15.5916 41.464 15.5743C41.464 15.557 41.4602 15.5399 41.4527 15.5242V15.6077ZM41.3024 20.7183V15.8749L34.839 21.1359V25.996L41.3024 20.7851" fill="white"/>
<path fill-rule="evenodd" clip-rule="evenodd" d="M15.9665 12.6516V25.7788H12.5093L2.15448 14.305V25.7788H0.0501099V12.6516H3.47389L13.8454 24.1922V12.6516H15.9665Z" fill="#002B60"/>
<path fill-rule="evenodd" clip-rule="evenodd" d="M60.9767 12.6516H63.1812L56.7011 25.7788H53.7617L47.2314 12.6516H49.4193L54.2961 22.1546L54.7805 23.1734C54.9642 23.5575 55.1145 23.9083 55.2314 24.1755C55.4986 23.5409 55.7992 22.8728 56.1166 22.188L60.9767 12.6516Z" fill="#002B60"/>
<path fill-rule="evenodd" clip-rule="evenodd" d="M57.1687 38.9061V52H53.8118L43.7742 40.5595V52H41.72V38.9061H45.0602L55.1145 50.4133V38.9061H57.1687Z" fill="#A26829"/>
<path fill-rule="evenodd" clip-rule="evenodd" d="M31.2483 49.2276H22.1126L20.7264 52H18.5886L25.2692 38.9061H28.1251L34.8056 52H32.6679L31.2483 49.2276ZM30.6637 47.7077L26.6554 40.1086L22.6972 47.7077H30.6637Z" fill="#A26829"/>
<path fill-rule="evenodd" clip-rule="evenodd" d="M75.0893 23.0064H65.8534L64.4505 25.7788H62.2794L68.9599 12.6516H71.8492L78.6801 25.7788H76.5256L75.0893 23.0064ZM74.5047 21.4866L70.4463 13.8541L66.438 21.4866H74.5047Z" fill="#002B60"/>
<path fill-rule="evenodd" clip-rule="evenodd" d="M2.10437 38.9061V50.2296H11.6408V52H0V38.9061H2.10437Z" fill="#A26829"/>
<path fill-rule="evenodd" clip-rule="evenodd" d="M63.6823 52V38.9061H71.9161C73.8017 38.7061 75.7001 39.1411 77.3106 40.142C77.8602 40.7895 78.2699 41.5436 78.5142 42.357C78.7585 43.1703 78.832 44.0254 78.7302 44.8685C78.9448 46.8548 78.4987 48.8565 77.4609 50.5637C76.6259 51.5156 74.9557 52 72.4505 52H63.6823ZM65.8034 50.7641H71.4484C72.9456 50.9401 74.4583 50.6047 75.7407 49.8121C76.5609 48.5784 76.9052 47.0886 76.7094 45.6201C76.8916 44.0618 76.6006 42.4847 75.8743 41.094C75.3232 40.4426 73.9871 40.142 71.8827 40.142H65.8034V50.7641Z" fill="#A26829"/>
<path d="M78.6801 31.9082H0V32.3425H78.6801V31.9082Z" fill="#002B60"/>
</svg>
