<svg width="24" height="24" viewBox="0 0 24 24" fill="none" xmlns="http://www.w3.org/2000/svg">
<path d="M16.5236 10.6464L17.3771 11.5L16.17 11.5L5.00002 11.5C4.72616 11.5 4.50002 11.7261 4.50002 12C4.50002 12.2738 4.72616 12.5 5.00002 12.5L16.17 12.5L17.3771 12.5L16.5236 13.3535L11.6436 18.2335C11.4488 18.4283 11.4488 18.7417 11.6436 18.9364C11.8383 19.1312 12.1517 19.1312 12.3465 18.9364L18.9365 12.3464C19.1312 12.1517 19.1312 11.8383 18.9365 11.6435L12.3465 5.05352C12.1517 4.85879 11.8383 4.85879 11.6436 5.05352C11.4488 5.24826 11.4488 5.57168 11.6436 5.76642L16.5236 10.6464Z" fill="#1F1F1F" stroke="#A26829"/>
</svg>
