<svg width="24" height="24" viewBox="0 0 24 24" fill="none" xmlns="http://www.w3.org/2000/svg">
<path d="M16.5235 13.3536L17.3771 12.5L16.17 12.5L4.99999 12.5C4.72613 12.5 4.49999 12.2739 4.49999 12C4.49999 11.7262 4.72613 11.5 4.99999 11.5L16.17 11.5L17.3771 11.5L16.5235 10.6465L11.6435 5.76648C11.4488 5.57174 11.4488 5.25832 11.6435 5.06358C11.8383 4.86884 12.1517 4.86884 12.3464 5.06358L18.9364 11.6536C19.1312 11.8483 19.1312 12.1617 18.9364 12.3565L12.3464 18.9465C12.1517 19.1412 11.8383 19.1412 11.6435 18.9465C11.4488 18.7517 11.4488 18.4283 11.6435 18.2336L16.5235 13.3536Z" fill="#1F1F1F" stroke="white"/>
</svg>
