<svg width="12" height="12" viewBox="0 0 12 12" fill="none" xmlns="http://www.w3.org/2000/svg">
<path d="M9.13355 7.02023L9.9871 6.16668H8.77999L1.33333 6.16668C1.2428 6.16668 1.16666 6.09053 1.16666 6.00001C1.16666 5.90949 1.2428 5.83334 1.33333 5.83334L8.77999 5.83334H9.9871L9.13355 4.97979L5.88021 1.72646C5.81548 1.66172 5.81548 1.5583 5.88021 1.49356C5.94495 1.42883 6.04837 1.42883 6.11311 1.49356L10.5064 5.8869L10.86 5.53334L10.5064 5.8869C10.5712 5.95163 10.5712 6.05505 10.5064 6.11979L6.11311 10.5131C6.04837 10.5779 5.94495 10.5779 5.88021 10.5131C5.81548 10.4484 5.81548 10.3383 5.88021 10.2736L9.13355 7.02023Z" fill="#1F1F1F" stroke="white"/>
</svg>
