<svg width="24" height="24" viewBox="0 0 24 24" fill="none" xmlns="http://www.w3.org/2000/svg">
<path d="M7.47643 13.3536L6.62287 12.5H7.82998L19 12.5C19.2738 12.5 19.5 12.2739 19.5 12C19.5 11.7262 19.2738 11.5 19 11.5L7.82998 11.5H6.62287L7.47643 10.6465L12.3564 5.76648C12.5512 5.57174 12.5512 5.25832 12.3564 5.06358C12.1617 4.86884 11.8483 4.86884 11.6535 5.06358L5.06353 11.6536C4.8688 11.8483 4.8688 12.1617 5.06353 12.3565L11.6535 18.9465C11.8483 19.1412 12.1617 19.1412 12.3564 18.9465C12.5512 18.7517 12.5512 18.4283 12.3564 18.2336L7.47643 13.3536Z" fill="#1F1F1F" stroke="#A26829"/>
</svg>
