<svg width="24" height="24" viewBox="0 0 24 24" fill="none" xmlns="http://www.w3.org/2000/svg">
<path d="M7.47646 10.6464L6.6229 11.5H7.83001H19C19.2739 11.5 19.5 11.7261 19.5 12C19.5 12.2738 19.2739 12.5 19 12.5H7.83001H6.6229L7.47646 13.3535L12.3565 18.2335C12.5512 18.4283 12.5512 18.7417 12.3565 18.9364C12.1617 19.1312 11.8483 19.1312 11.6536 18.9364L5.06356 12.3464C4.86883 12.1517 4.86883 11.8383 5.06356 11.6435L11.6536 5.05352C11.8483 4.85879 12.1617 4.85879 12.3565 5.05352C12.5512 5.24826 12.5512 5.57168 12.3565 5.76642L7.47646 10.6464Z" fill="#1F1F1F" stroke="white"/>
</svg>
