<svg width="60" height="60" viewBox="0 0 60 60" fill="none" xmlns="http://www.w3.org/2000/svg">
<circle cx="30" cy="30" r="29.5" fill="white" stroke="#C3A371"/>
<path d="M29.9 14.825C29.9 22.675 29.9 30.525 29.9 38.375C30 38.375 30.1 38.375 30.15 38.375C31.95 38.375 33.8 38.375 35.6 38.375C36.05 38.375 36.25 38.575 36.25 39.025C36.25 40.325 36.25 41.625 36.25 42.925C36.25 43.125 36.3 43.175 36.5 43.175C37.85 43.175 39.15 43.175 40.5 43.175C40.8 43.175 41 43.325 41.05 43.575C41.1 43.825 40.95 44.075 40.75 44.175C40.65 44.225 40.55 44.225 40.45 44.225C39.7 44.225 38.95 44.225 38.15 44.225C33.7 44.225 29.2 44.225 24.75 44.225C24.65 44.225 24.5 44.225 24.4 44.175C24.15 44.075 24.05 43.825 24.1 43.575C24.15 43.325 24.35 43.175 24.6 43.175C25.25 43.175 25.85 43.175 26.5 43.175C26.7 43.175 26.75 43.125 26.75 42.925C26.75 42.325 26.75 41.725 26.75 41.125C26.75 40.725 26.95 40.525 27.35 40.525C28.7 40.525 30.1 40.525 31.45 40.525C31.85 40.525 32.05 40.725 32.05 41.125C32.05 41.725 32.05 42.325 32.05 42.925C32.05 43.025 32.05 43.075 32.05 43.175C33.1 43.175 34.15 43.175 35.2 43.175C35.2 41.925 35.2 40.725 35.2 39.475C35.1 39.475 35.05 39.475 35 39.475C31.9 39.475 28.8 39.475 25.7 39.475C25.55 39.475 25.45 39.525 25.4 39.675C24.95 40.625 24.25 41.225 23.25 41.525C23.2 41.525 23.15 41.575 23.05 41.575C23.05 41.675 23.05 41.825 23.05 41.925C23.05 42.525 23.05 43.075 23.05 43.675C23.05 44.025 22.85 44.225 22.55 44.225C22.25 44.225 22 44.025 22 43.675C22 43.075 22 42.425 22 41.825C22 41.725 22 41.675 22 41.575C21.65 41.425 21.3 41.325 20.95 41.175C20.95 41.225 20.95 41.325 20.95 41.375C20.95 42.125 20.95 42.875 20.95 43.575C20.95 44.025 20.75 44.175 20.35 44.175C18.65 44.175 16.9 44.175 15.2 44.175C14.8 44.175 14.6 43.975 14.6 43.575C14.6 42.075 14.6 40.575 14.6 39.075C14.6 38.475 14.65 37.825 14.6 37.225C14.5 34.025 14.5 30.725 14.5 27.475C14.5 27.125 14.65 26.875 14.95 26.675C16.65 25.675 18.3 24.675 20 23.675C20.2 23.575 20.4 23.525 20.65 23.625C21.55 23.925 22.45 24.225 23.35 24.525C23.4 24.525 23.5 24.575 23.6 24.575C23.6 24.475 23.6 24.375 23.6 24.325C23.6 21.675 23.6 19.025 23.6 16.375C23.6 15.975 23.7 15.825 24.1 15.675C24.65 15.525 25.2 15.375 25.7 15.175C26.35 14.925 26.95 14.625 27.55 14.325C28.05 14.075 28.55 13.825 29.05 13.575C29.25 13.475 29.45 13.475 29.7 13.575C30.65 14.075 31.6 14.575 32.6 15.025C33.1 15.225 33.6 15.375 34.15 15.525C34.35 15.575 34.55 15.625 34.8 15.725C35.15 15.825 35.25 15.975 35.25 16.325C35.25 18.575 35.25 20.775 35.25 23.025C35.25 23.975 35.25 24.925 35.25 25.825C35.25 25.875 35.25 25.925 35.25 26.025C35.5 25.675 35.7 25.375 35.85 25.125C36 24.875 36.2 24.625 36.35 24.375C36.5 24.125 36.7 24.075 37 24.125C38.9 24.625 40.8 25.175 42.7 25.675C43.05 25.775 43.15 25.925 43.15 26.325C43.15 29.275 43.15 32.225 43.15 35.175C43.15 35.475 43.05 35.675 42.8 35.775C42.6 35.875 42.3 35.825 42.2 35.625C42.1 35.475 42.1 35.325 42.1 35.175C42.1 33.525 42.1 31.825 42.1 30.175C42.1 29.075 42.1 27.975 42.1 26.875C42.1 26.725 42.05 26.675 41.9 26.625C40.35 26.225 38.75 25.775 37.2 25.325C37.05 25.275 37 25.325 36.9 25.425C36.35 26.225 35.8 27.025 35.3 27.875C35.25 27.975 35.2 28.125 35.2 28.225C35.2 29.275 35.2 30.275 35.2 31.325C35.2 33.175 35.2 34.975 35.2 36.825C35.2 37.175 35 37.425 34.7 37.425C34.4 37.425 34.15 37.175 34.15 36.825C34.15 34.675 34.15 32.525 34.15 30.325C34.15 25.825 34.15 21.325 34.15 16.825C34.15 16.675 34.1 16.625 34 16.575C33.8 16.525 33.6 16.475 33.4 16.425C32.25 16.175 31.3 15.525 30.25 15.075C30.1 14.975 30.05 14.925 29.9 14.825ZM28.8 38.375C28.8 30.525 28.8 22.725 28.8 14.875C28.75 14.875 28.75 14.875 28.7 14.875C28.65 14.925 28.6 14.975 28.5 15.025C27.3 15.625 26.15 16.275 24.85 16.525C24.6 16.575 24.55 16.675 24.55 16.925C24.55 20.775 24.55 24.625 24.55 28.475C24.55 28.875 24.55 29.275 24.55 29.675C24.55 30.625 24.55 31.575 24.55 32.525C24.55 32.625 24.55 32.775 24.45 32.875C24.35 33.075 24.1 33.175 23.85 33.125C23.6 33.075 23.45 32.875 23.45 32.575C23.45 31.375 23.45 30.175 23.45 28.975C23.45 27.925 23.45 26.825 23.45 25.775C23.45 25.725 23.45 25.725 23.45 25.725C22.55 25.425 21.7 25.125 20.8 24.875C20.8 28.225 20.8 31.525 20.8 34.875C20.9 34.825 20.95 34.775 21 34.725C21.9 34.025 22.9 34.025 23.8 34.725C24.65 35.425 25.15 36.325 25.45 37.375C25.55 37.725 25.55 38.075 25.6 38.425C26.7 38.375 27.75 38.375 28.8 38.375ZM19.8 43.175C19.8 43.125 19.8 43.075 19.8 43.075C19.8 42.125 19.8 41.175 19.8 40.225C19.8 40.125 19.75 40.075 19.7 39.975C19.4 39.425 19.25 38.825 19.25 38.175C19.25 38.125 19.25 38.025 19.25 37.925C19.2 37.925 19.1 37.925 19.05 37.925C17.95 38.025 16.85 38.175 15.7 38.275C15.55 38.275 15.5 38.375 15.5 38.525C15.5 39.975 15.5 41.475 15.5 42.925C15.5 42.975 15.5 43.075 15.5 43.125C17 43.175 18.4 43.175 19.8 43.175ZM20.35 38.275C20.35 38.425 20.4 38.575 20.4 38.675C20.6 40.125 22.25 40.975 23.5 40.225C24.2 39.825 24.6 39.125 24.6 38.325C24.6 37.225 24.15 36.325 23.35 35.575C22.75 35.025 22.15 35.025 21.55 35.575C20.8 36.325 20.4 37.225 20.35 38.275ZM15.55 29.075C17 28.425 18.4 27.825 19.8 27.225C19.8 26.525 19.8 25.775 19.8 25.025C19.6 25.175 19.4 25.275 19.2 25.375C18.05 26.075 16.9 26.775 15.75 27.475C15.7 27.525 15.6 27.625 15.6 27.675C15.55 28.125 15.55 28.575 15.55 29.075ZM19.8 34.675C18.35 34.975 16.95 35.325 15.55 35.625C15.55 36.175 15.55 36.725 15.55 37.275C15.65 37.275 15.7 37.275 15.75 37.275C16.25 37.225 16.75 37.175 17.25 37.075C17.95 36.975 18.7 36.925 19.4 36.825C19.45 36.825 19.55 36.775 19.55 36.725C19.65 36.525 19.75 36.375 19.75 36.175C19.85 35.725 19.8 35.225 19.8 34.675ZM19.8 31.525C19.45 31.625 19.15 31.725 18.8 31.825C17.75 32.175 16.75 32.525 15.7 32.875C15.65 32.875 15.55 32.975 15.55 33.025C15.55 33.525 15.55 34.025 15.55 34.575C17 34.275 18.4 33.925 19.8 33.625C19.8 32.925 19.8 32.225 19.8 31.525ZM15.55 31.825C15.65 31.775 15.7 31.775 15.75 31.775C17.05 31.325 18.35 30.925 19.65 30.475C19.7 30.475 19.75 30.375 19.75 30.325C19.75 29.925 19.75 29.525 19.75 29.125C19.75 28.875 19.75 28.625 19.75 28.375C19.65 28.425 19.6 28.425 19.55 28.425C19.1 28.625 18.65 28.825 18.2 29.025C17.35 29.425 16.5 29.775 15.65 30.175C15.6 30.225 15.5 30.275 15.45 30.325C15.55 30.825 15.55 31.325 15.55 31.825ZM30.95 41.575C30.9 41.575 30.9 41.575 30.85 41.575C29.9 41.575 28.9 41.575 27.95 41.575C27.8 41.575 27.8 41.625 27.8 41.775C27.8 42.175 27.8 42.575 27.8 42.975C27.8 43.125 27.85 43.175 28 43.175C28.95 43.175 29.85 43.175 30.8 43.175C30.85 43.175 30.9 43.175 31 43.175C30.95 42.625 30.95 42.125 30.95 41.575Z" fill="#C3A371"/>
<path d="M31.5 26.4754C31.5 24.7754 31.5 23.0754 31.5 21.3754C31.5 20.5254 31.5 19.7254 31.5 18.8754C31.5 18.5254 31.7 18.2754 32.05 18.2754C32.35 18.2754 32.6 18.5254 32.6 18.8754C32.6 23.9254 32.6 29.0254 32.6 34.0754C32.6 34.4254 32.4 34.6754 32.1 34.6754C31.8 34.6754 31.55 34.4254 31.55 34.0754C31.5 31.5254 31.5 28.9754 31.5 26.4754Z" fill="#C3A371"/>
<path d="M42.0999 42.9744C42.0999 42.7244 42.0999 42.5244 42.0999 42.2744C42.0999 42.1244 42.0499 42.0744 41.8999 42.0244C40.9499 41.7244 40.3499 41.1244 40.0499 40.1744C39.8499 39.4244 39.9499 38.7244 40.3999 38.0244C41.0999 36.9244 42.6499 36.5244 43.8499 37.1244C44.8499 37.6744 45.3499 38.6244 45.2499 39.6744C45.1499 40.8244 44.3999 41.7244 43.2999 42.0244C43.1499 42.0744 43.0999 42.1244 43.0999 42.2744C43.0999 42.7244 43.0999 43.2244 43.0999 43.6744C43.0999 44.0244 42.8999 44.2244 42.5999 44.2244C42.2999 44.2244 42.0999 44.0244 42.0499 43.6744C42.0999 43.4244 42.0999 43.1744 42.0999 42.9744ZM44.1999 39.4244C44.1999 38.5244 43.4999 37.8244 42.5999 37.8244C41.6499 37.8244 40.9999 38.5744 40.9999 39.4244C40.9999 40.3244 41.6999 41.0244 42.5999 41.0244C43.4999 41.0744 44.1999 40.3244 44.1999 39.4244Z" fill="#C3A371"/>
<path d="M40.9997 32.0246C40.9997 32.2246 40.9997 32.3746 40.9997 32.5746C40.9997 32.8746 40.7497 33.0746 40.4997 33.0746C40.1997 33.0746 39.9997 32.8746 39.9497 32.5746C39.9497 32.2246 39.9497 31.8246 39.9497 31.4746C39.9497 31.1746 40.1997 30.9746 40.4497 30.9746C40.7497 30.9746 40.9497 31.1746 40.9997 31.4746C41.0497 31.6746 40.9997 31.8246 40.9997 32.0246Z" fill="#C3A371"/>
<path d="M41 28.3254C41 28.5254 41 28.6754 41 28.8754C41 29.1754 40.75 29.3754 40.5 29.3754C40.2 29.3754 40 29.1754 40 28.8754C40 28.4754 40 28.1254 40 27.7254C40 27.4754 40.25 27.2754 40.5 27.2754C40.75 27.2754 41 27.4754 41 27.7254C41.05 27.9254 41 28.1254 41 28.3254Z" fill="#C3A371"/>
<path d="M38.3501 39.425C38.3501 39.625 38.3501 39.775 38.3501 39.975C38.3501 40.275 38.1001 40.475 37.8501 40.475C37.5501 40.475 37.3501 40.275 37.3501 39.975C37.3501 39.625 37.3501 39.225 37.3501 38.875C37.3501 38.575 37.6001 38.375 37.8501 38.375C38.1501 38.375 38.3501 38.575 38.3501 38.875C38.3501 39.075 38.3501 39.275 38.3501 39.425Z" fill="#C3A371"/>
<path d="M38.3498 35.7248C38.3498 35.9248 38.3498 36.0748 38.3498 36.2748C38.3498 36.5748 38.0998 36.7748 37.7998 36.7748C37.4998 36.7748 37.2998 36.5748 37.2998 36.2248C37.2998 35.8748 37.2998 35.5248 37.2998 35.1748C37.2998 34.8748 37.5498 34.6748 37.8498 34.6748C38.1498 34.6748 38.3498 34.8748 38.3498 35.1748C38.3498 35.3748 38.3498 35.5748 38.3498 35.7248Z" fill="#C3A371"/>
<path d="M38.3501 32.0246C38.3501 32.2246 38.3501 32.3746 38.3501 32.5746C38.3501 32.8746 38.1001 33.0746 37.8501 33.0746C37.5501 33.0746 37.3501 32.8746 37.3501 32.5746C37.3501 32.2246 37.3501 31.8246 37.3501 31.4746C37.3501 31.1746 37.6001 30.9746 37.8501 30.9746C38.1501 30.9746 38.3501 31.1746 38.3501 31.4746C38.3501 31.6746 38.3501 31.8746 38.3501 32.0246Z" fill="#C3A371"/>
<path d="M37.2998 28.3254C37.2998 28.1254 37.2998 27.9754 37.2998 27.7754C37.2998 27.4754 37.5498 27.2754 37.7998 27.2754C38.0998 27.2754 38.2998 27.4754 38.2998 27.7754C38.2998 28.1254 38.2998 28.5254 38.2998 28.8754C38.2998 29.1254 37.9998 29.3754 37.7998 29.3754C37.4998 29.3754 37.2998 29.1754 37.2998 28.8754C37.3498 28.6754 37.3498 28.5254 37.2998 28.3254C37.3498 28.3254 37.3498 28.3254 37.2998 28.3254Z" fill="#C3A371"/>
<path d="M39.9497 35.7244C39.9497 35.5244 39.9497 35.3744 39.9497 35.1744C39.9497 34.8744 40.1997 34.6244 40.4997 34.6744C40.7997 34.6744 40.9997 34.8744 40.9997 35.2244C40.9997 35.5744 40.9997 35.9244 40.9997 36.2744C40.9997 36.5744 40.7497 36.8244 40.4997 36.8244C40.1997 36.8244 39.9997 36.6244 39.9997 36.3244C39.9497 36.0744 39.9497 35.9244 39.9497 35.7244Z" fill="#C3A371"/>
<path d="M26.6999 25.9746C26.6999 26.2246 26.6999 26.4246 26.6999 26.6746C26.6999 27.0246 26.4999 27.2246 26.1999 27.2746C25.8999 27.2746 25.6499 27.0246 25.6499 26.7246C25.6499 26.2246 25.6499 25.7746 25.6499 25.2746C25.6499 24.9246 25.8999 24.7246 26.1999 24.7246C26.4999 24.7246 26.6999 24.9746 26.7499 25.2746C26.6999 25.5246 26.6999 25.7746 26.6999 25.9746Z" fill="#C3A371"/>
<path d="M26.6999 33.375C26.6999 33.625 26.6999 33.875 26.6999 34.125C26.6999 34.425 26.4999 34.675 26.1999 34.675C25.8999 34.675 25.6499 34.475 25.6499 34.125C25.6499 33.625 25.6499 33.125 25.6499 32.675C25.6499 32.375 25.8999 32.125 26.1999 32.125C26.4999 32.125 26.6999 32.375 26.6999 32.675C26.6999 32.925 26.6999 33.175 26.6999 33.375Z" fill="#C3A371"/>
<path d="M26.6999 18.5754C26.6999 18.8254 26.6999 19.0254 26.6999 19.2754C26.6999 19.6254 26.4499 19.8254 26.1499 19.8254C25.8499 19.8254 25.6499 19.5754 25.6499 19.2754C25.6499 18.7754 25.6499 18.3254 25.6499 17.8254C25.6499 17.4754 25.8999 17.2754 26.1999 17.2754C26.4999 17.2754 26.6999 17.5254 26.6999 17.8254C26.6999 18.0754 26.6999 18.3254 26.6999 18.5754Z" fill="#C3A371"/>
<path d="M26.6997 29.6748C26.6997 29.4248 26.6997 29.1748 26.6997 28.9748C26.6997 28.6748 26.8997 28.4248 27.1997 28.4248C27.4997 28.4248 27.6997 28.6248 27.6997 28.9248C27.6997 29.4248 27.6997 29.9248 27.6997 30.4248C27.6997 30.7248 27.4497 30.9248 27.1997 30.9248C26.8997 30.9248 26.6997 30.7248 26.6997 30.4248C26.6997 30.1748 26.6997 29.9248 26.6997 29.6748Z" fill="#C3A371"/>
<path d="M26.6997 22.275C26.6997 22.025 26.6997 21.775 26.6997 21.575C26.6997 21.275 26.9497 20.975 27.2497 21.025C27.4997 21.025 27.7497 21.275 27.7497 21.575C27.7497 22.025 27.7497 22.525 27.7497 22.975C27.7497 23.325 27.5497 23.525 27.2497 23.525C26.9497 23.525 26.6997 23.275 26.6997 22.925C26.6997 22.825 26.6997 22.725 26.6997 22.575C26.6997 22.525 26.6997 22.375 26.6997 22.275Z" fill="#C3A371"/>
</svg>
