<svg width="14" height="15" viewBox="0 0 14 15" fill="none" xmlns="http://www.w3.org/2000/svg">
<g opacity="0.6">
<path d="M7.00001 3.125C4.08334 3.125 1.59251 4.93917 0.583344 7.5C1.59251 10.0608 4.08334 11.875 7.00001 11.875C9.91668 11.875 12.4075 10.0608 13.4167 7.5C12.4075 4.93917 9.91668 3.125 7.00001 3.125ZM7.00001 10.4167C5.39001 10.4167 4.08334 9.11 4.08334 7.5C4.08334 5.89 5.39001 4.58333 7.00001 4.58333C8.61001 4.58333 9.91668 5.89 9.91668 7.5C9.91668 9.11 8.61001 10.4167 7.00001 10.4167ZM7.00001 5.75C6.03168 5.75 5.25001 6.53167 5.25001 7.5C5.25001 8.46833 6.03168 9.25 7.00001 9.25C7.96834 9.25 8.75001 8.46833 8.75001 7.5C8.75001 6.53167 7.96834 5.75 7.00001 5.75Z" fill="#1F1F1F"/>
</g>
</svg>
