<svg width="14" height="15" viewBox="0 0 14 15" fill="none" xmlns="http://www.w3.org/2000/svg">
<g opacity="0.6">
<path d="M6.99999 3.125C4.08333 3.125 1.59249 4.93917 0.583328 7.5C1.59249 10.0608 4.08333 11.875 6.99999 11.875C9.91666 11.875 12.4075 10.0608 13.4167 7.5C12.4075 4.93917 9.91666 3.125 6.99999 3.125ZM6.99999 10.4167C5.38999 10.4167 4.08333 9.11 4.08333 7.5C4.08333 5.89 5.38999 4.58333 6.99999 4.58333C8.60999 4.58333 9.91666 5.89 9.91666 7.5C9.91666 9.11 8.60999 10.4167 6.99999 10.4167ZM6.99999 5.75C6.03166 5.75 5.24999 6.53167 5.24999 7.5C5.24999 8.46833 6.03166 9.25 6.99999 9.25C7.96833 9.25 8.74999 8.46833 8.74999 7.5C8.74999 6.53167 7.96833 5.75 6.99999 5.75Z" fill="#1F1F1F"/>
</g>
</svg>
