<svg width="40" height="40" viewBox="0 0 40 40" fill="none" xmlns="http://www.w3.org/2000/svg">
<path d="M32.1748 3.33334H7.82512C5.34444 3.33334 3.33335 5.34434 3.33335 7.82511V32.175C3.33335 34.6558 5.34436 36.6668 7.82512 36.6668H19.8343L19.8548 24.7552H16.7601C16.358 24.7552 16.0316 24.43 16.03 24.0278L16.0152 20.1883C16.0136 19.7839 16.341 19.4553 16.7454 19.4553H19.8344V15.7452C19.8344 11.4398 22.4639 9.09546 26.3046 9.09546H29.4562C29.8594 9.09546 30.1864 9.42236 30.1864 9.82567V13.0632C30.1864 13.4664 29.8597 13.7932 29.4566 13.7934L27.5225 13.7943C25.4338 13.7943 25.0294 14.7869 25.0294 16.2435V19.4553H29.619C30.0563 19.4553 30.3956 19.8372 30.344 20.2715L29.889 24.1111C29.8454 24.4785 29.5338 24.7554 29.1639 24.7554H25.0498L25.0294 36.6669H32.175C34.6557 36.6669 36.6667 34.6559 36.6667 32.1752V7.82511C36.6666 5.34434 34.6556 3.33334 32.1748 3.33334Z" fill="white"/>
</svg>
