<svg width="24" height="24" viewBox="0 0 24 24" fill="none" xmlns="http://www.w3.org/2000/svg">
<path d="M21.16 8.2H18.76V2.92C18.76 2.44 18.36 2 17.84 2H6.16C5.68 2 5.24 2.4 5.24 2.92V8.24H2.84C1.84 8.24 1 9.08 1 10.08V16.64C1 17.64 1.84 18.48 2.84 18.48H5.24V21.8C5.24 22.28 5.64 22.72 6.16 22.72H17.84C18.32 22.72 18.76 22.32 18.76 21.8V18.44H21.16C22.16 18.44 23 17.6 23 16.6V10.04C22.96 9.04 22.16 8.2 21.16 8.2ZM6.12 2.92C6.12 2.88 6.12 2.88 6.12 2.92L17.84 2.88C17.84 2.88 17.88 2.88 17.88 2.92V8.24H6.12V2.92ZM17.88 21.8C17.84 21.84 17.88 21.84 17.88 21.8L6.16 21.84C6.16 21.84 6.12 21.84 6.12 21.8V13.28H17.88V21.8ZM22.12 16.6C22.12 17.12 21.68 17.56 21.16 17.56H18.76V12.44H5.24V17.6H2.84C2.32 17.6 1.88 17.16 1.88 16.64V10.04C1.88 9.52 2.32 9.08 2.84 9.08H21.16C21.68 9.08 22.12 9.52 22.12 10.04V16.6Z" fill="#0B346B"/>
<path d="M6.12 2.92C6.12 2.88 6.12 2.88 6.12 2.92ZM6.12 2.92L17.84 2.88C17.84 2.88 17.88 2.88 17.88 2.92V8.24H6.12V2.92ZM17.88 21.8C17.88 21.84 17.84 21.84 17.88 21.8ZM17.88 21.8L6.16 21.84C6.16 21.84 6.12 21.84 6.12 21.8V13.28H17.88V21.8ZM21.16 8.2H18.76V2.92C18.76 2.44 18.36 2 17.84 2H6.16C5.68 2 5.24 2.4 5.24 2.92V8.24H2.84C1.84 8.24 1 9.08 1 10.08V16.64C1 17.64 1.84 18.48 2.84 18.48H5.24V21.8C5.24 22.28 5.64 22.72 6.16 22.72H17.84C18.32 22.72 18.76 22.32 18.76 21.8V18.44H21.16C22.16 18.44 23 17.6 23 16.6V10.04C22.96 9.04 22.16 8.2 21.16 8.2ZM22.12 16.6C22.12 17.12 21.68 17.56 21.16 17.56H18.76V12.44H5.24V17.6H2.84C2.32 17.6 1.88 17.16 1.88 16.64V10.04C1.88 9.52 2.32 9.08 2.84 9.08H21.16C21.68 9.08 22.12 9.52 22.12 10.04V16.6Z" stroke="#0B346B" stroke-width="0.5"/>
<path d="M20.64 11.2817C21.0597 11.2817 21.4 10.9415 21.4 10.5217C21.4 10.102 21.0597 9.76172 20.64 9.76172C20.2203 9.76172 19.88 10.102 19.88 10.5217C19.88 10.9415 20.2203 11.2817 20.64 11.2817Z" fill="#0B346B" stroke="#0B346B" stroke-width="0.5"/>
<path d="M8.15997 16.9191H15.84C16.08 16.9191 16.28 16.7191 16.28 16.4791C16.28 16.2391 16.08 16.0391 15.84 16.0391H8.15997C7.91997 16.0391 7.71997 16.2391 7.71997 16.4791C7.71997 16.7191 7.91997 16.9191 8.15997 16.9191Z" fill="#0B346B" stroke="#0B346B" stroke-width="0.5"/>
<path d="M8.15997 19.3605H15.84C16.08 19.3605 16.28 19.1605 16.28 18.9205C16.28 18.6805 16.08 18.4805 15.84 18.4805H8.15997C7.91997 18.4805 7.71997 18.6805 7.71997 18.9205C7.71997 19.1605 7.91997 19.3605 8.15997 19.3605Z" fill="#0B346B" stroke="#0B346B" stroke-width="0.5"/>
</svg>
