<svg width="48" height="48" viewBox="0 0 48 48" fill="none" xmlns="http://www.w3.org/2000/svg">
<path d="M24 4C16.26 4 10 10.26 10 18C10 21.48 11 24.74 12.82 27.68C14.72 30.76 17.22 33.4 19.14 36.48C20.08 37.98 20.76 39.38 21.48 41C22 42.1 22.42 44 24 44C25.58 44 26 42.1 26.5 41C27.24 39.38 27.9 37.98 28.84 36.48C30.76 33.42 33.26 30.78 35.16 27.68C37 24.74 38 21.48 38 18C38 10.26 31.74 4 24 4ZM24 23.5C21.24 23.5 19 21.26 19 18.5C19 15.74 21.24 13.5 24 13.5C26.76 13.5 29 15.74 29 18.5C29 21.26 26.76 23.5 24 23.5Z" fill="#BB0000"/>
<defs>
<linearGradient id="paint0_linear_2102_59900" x1="10" y1="21.6667" x2="38" y2="21.6667" gradientUnits="userSpaceOnUse">
<stop stop-color="#074C31"/>
<stop offset="1" stop-color="#A1C038"/>
</linearGradient>
</defs>
</svg>
