<svg width="13" height="17" viewBox="0 0 13 17" fill="none" xmlns="http://www.w3.org/2000/svg">
<path fill-rule="evenodd" clip-rule="evenodd" d="M5.33215 3.04818L7.93829 3.04818C7.96842 3.04818 7.98348 3.03311 7.99855 3.00298C8.01361 2.97285 7.99855 2.95779 7.98348 2.92766L6.67288 1.88822C6.64275 1.87315 6.61262 1.87315 6.59756 1.88822L5.30202 2.92766C5.28695 2.94273 5.27189 2.97285 5.28695 3.00298C5.28695 3.03311 5.31708 3.04818 5.33215 3.04818ZM6.62769 2.0238C6.68794 2.06899 7.54661 2.76195 7.75752 2.92766L5.51292 2.92766C5.72382 2.74689 6.56743 2.06899 6.62769 2.0238ZM12.9698 5.112C12.9849 5.112 12.9999 5.14213 12.9999 5.17226V11.4993C12.9999 11.4993 12.9849 11.5897 12.9698 11.6048L6.65781 16.7267C6.64275 16.7417 6.64275 16.7568 6.62769 16.7568C6.61262 16.7718 6.58249 16.7718 6.55236 16.7417L5.13631 15.5818C5.13631 15.5667 5.12125 15.5667 5.12125 15.5667C5.12125 15.5667 2.03304 9.88741 1.80708 9.48068V12.7647C1.80708 12.7948 1.79201 12.8099 1.77695 12.825C1.76188 12.84 1.73175 12.84 1.71669 12.825L0.300636 11.665C0.285572 11.65 0.270508 11.6349 0.270508 11.6198V5.14213L6.58249 0.0503608C6.61262 0.0352964 6.64275 0.0352964 6.67288 0.0503608L12.9698 5.112ZM6.62769 0.155812C6.68794 0.216069 9.77615 2.68663 9.77615 2.68663C9.77615 2.68663 10.8156 3.53024 11.6893 4.23826C11.5236 4.37384 11.0416 4.76552 10.4239 5.24758C9.82134 4.72033 9.2037 4.17801 9.2037 4.17801C9.18863 4.16294 9.17357 4.16294 9.15851 4.16294L3.99142 4.16294C3.97635 4.16294 3.96129 4.16294 3.94622 4.17801C3.94622 4.17801 3.38884 4.70526 2.83146 5.21745C2.24394 4.73539 1.76188 4.35878 1.61124 4.2232C3.37378 2.79208 6.58249 0.201005 6.62769 0.155812ZM10.3335 5.33797C9.74602 4.82578 9.17357 4.31359 9.15851 4.29852L4.02154 4.29852C4.00648 4.31359 3.47923 4.81071 2.93691 5.30784C4.42828 6.51299 6.58249 8.26046 6.64275 8.30565C6.68794 8.26046 8.84215 6.52805 10.3335 5.33797ZM6.5373 10.4599L5.27189 9.39029V12.5538C5.27189 12.5839 5.25683 12.599 5.2267 12.6141C5.19657 12.6141 5.16644 12.6141 5.15137 12.5839C5.15137 12.5839 1.80708 6.48286 1.79201 6.4678C1.77695 6.45273 1.76188 6.43767 1.73175 6.4226L0.391024 5.29277V11.5897C0.436217 11.6198 1.50579 12.5086 1.68656 12.6442V9.23965C1.68656 9.20952 1.70163 9.19445 1.73175 9.17939C1.76188 9.17939 1.79201 9.19445 1.80708 9.20952C1.80708 9.20952 5.21163 15.4763 5.2267 15.4914C5.24176 15.5064 6.35653 16.3952 6.5373 16.5459V10.4599ZM2.06317 6.6787C2.69588 7.82359 4.95554 11.9512 5.15137 12.2977V9.28484L2.06317 6.6787ZM6.64275 10.3695C6.68794 10.3243 9.18863 8.23033 10.9964 6.70883L12.3974 5.5338C12.6534 5.3229 12.8041 5.18732 12.8192 5.17226C12.7137 5.09694 11.855 4.38891 11.7797 4.32865C11.7044 4.38891 6.65781 8.44123 6.65781 8.44123C6.62769 8.4563 6.59756 8.4563 6.58249 8.44123C6.58249 8.44123 1.58111 4.38891 1.49072 4.32865C1.4154 4.38891 0.541667 5.09694 0.436216 5.17226L1.86733 6.37741C2.90678 7.22102 4.24751 8.36591 5.25682 9.20952L6.64275 10.3695ZM12.8794 11.5294V5.30784C12.7438 5.41329 12.4877 5.62419 12.4877 5.62419C12.4877 5.62419 11.147 6.75402 9.76108 7.91398L6.70301 10.49V16.5459C6.89884 16.3802 12.8342 11.5596 12.8794 11.5294ZM11.5387 8.12488C11.5236 8.10982 11.4935 8.10982 11.4784 8.13995L8.01361 10.9269C7.99855 10.9419 7.99855 10.957 7.99855 10.9721V13.6385C7.99855 13.6535 8.01361 13.6836 8.02868 13.6987C8.04374 13.7138 8.07387 13.7138 8.08893 13.6836L11.5537 10.8817C11.5688 10.8666 11.5839 10.8515 11.5839 10.8365V8.18514C11.5839 8.15501 11.5688 8.13994 11.5387 8.12488ZM11.4634 10.8063V8.30565C11.2675 8.4563 8.16426 10.957 8.11906 10.9871V13.5029C8.3149 13.3522 11.4182 10.8515 11.4634 10.8063Z" fill="white"/>
<path fill-rule="evenodd" clip-rule="evenodd" d="M5.27149 12.5353C5.27149 12.5654 5.25643 12.5955 5.2263 12.5955C5.19617 12.5955 5.16604 12.5955 5.15098 12.5654C5.15098 12.5654 1.80668 6.46433 1.79161 6.44926C1.77655 6.4342 1.76148 6.41913 1.73136 6.40407L0.390625 5.27424V11.5712C0.435818 11.6013 1.50539 12.4901 1.68616 12.6257V9.23618C1.68616 9.20605 1.70123 9.19098 1.73136 9.17592C1.76148 9.17592 1.79161 9.19098 1.80668 9.20605C1.80668 9.20605 5.21123 15.4728 5.2263 15.4879C5.24136 15.503 6.35613 16.3918 6.5369 16.5424C6.5369 16.2863 6.55196 10.5317 6.55196 10.4715L5.25643 9.37176V12.5353H5.27149ZM12.397 5.51527L10.996 6.69029C9.18823 8.2118 6.68754 10.3057 6.64235 10.3509L5.25643 9.19098C4.24711 8.36244 2.90638 7.21755 1.89707 6.35888L0.465947 5.15372C0.571398 5.06334 1.44513 4.35531 1.52046 4.31012C1.59578 4.37038 6.61222 8.4227 6.61222 8.4227C6.64235 8.43776 6.67248 8.43776 6.68754 8.4227C6.68754 8.4227 11.7341 4.38544 11.8094 4.31012C11.8848 4.37038 12.7434 5.06334 12.8489 5.15372C12.8037 5.18385 12.653 5.30437 12.397 5.51527ZM12.4873 5.62072C12.4873 5.62072 11.1466 6.75055 9.76068 7.91051L6.70261 10.4865V16.5424C6.89845 16.3767 12.8338 11.5712 12.879 11.526V5.2893C12.7434 5.39475 12.4873 5.62072 12.4873 5.62072ZM11.5835 10.833V8.18167C11.5835 8.1666 11.5684 8.13647 11.5383 8.12141C11.5232 8.10635 11.4931 8.12141 11.478 8.13648L8.01321 10.9234C7.99815 10.9385 7.99815 10.9535 7.99815 10.9686V13.635C7.99815 13.65 8.01321 13.6802 8.02828 13.6952C8.04334 13.7103 8.07347 13.7103 8.08853 13.6802L11.5533 10.8782C11.5684 10.8782 11.5835 10.8631 11.5835 10.833ZM3.94582 4.1896C3.96089 4.17454 3.97595 4.17454 3.99102 4.17454L9.17317 4.17454C9.18824 4.17454 9.2033 4.17454 9.21836 4.1896C9.21836 4.1896 9.836 4.73192 10.4386 5.25917C11.0562 4.76205 11.5383 4.37038 11.704 4.24986C10.8303 3.5569 9.79081 2.69823 9.79081 2.69823C9.79081 2.69823 6.70261 0.212601 6.62729 0.152344C6.58209 0.182473 3.37338 2.78861 1.61084 4.2348C1.77655 4.37038 2.24355 4.74698 2.83106 5.22905C3.38844 4.70179 3.94582 4.1896 3.94582 4.1896ZM5.30162 2.93926L6.59716 1.89981C6.62729 1.88475 6.65742 1.88475 6.67248 1.89981L7.98308 2.93926C7.99815 2.95432 8.01321 2.98445 7.99815 3.01458C7.99815 3.04471 7.96802 3.05977 7.93789 3.05977L5.33175 3.05977C5.30162 3.05977 5.28655 3.04471 5.27149 3.01458C5.27149 2.98445 5.27149 2.95432 5.30162 2.93926Z" fill="#D9D9D9"/>
<path fill-rule="evenodd" clip-rule="evenodd" d="M6.62732 2.01953C6.552 2.07979 5.72346 2.75769 5.51256 2.9234L7.75715 2.9234C7.54625 2.74262 6.70264 2.06472 6.62732 2.01953ZM2.06281 6.67443C2.69551 7.81933 4.95517 11.947 5.15101 12.2935V9.89821L4.47311 8.69306L2.06281 6.67443ZM3.78015 5.1228L9.41423 5.1228L10.0017 5.58979C10.1072 5.49941 10.2277 5.40902 10.3332 5.3337C9.74565 4.82151 9.1732 4.30932 9.15814 4.29426L4.02118 4.29426C4.00612 4.30932 3.47886 4.80645 2.93654 5.30357C3.05706 5.39396 3.17757 5.49941 3.29809 5.58979L3.78015 5.1228ZM1.82178 12.7002V9.49147L3.13238 11.9018L1.82178 12.7002ZM10.4838 9.0998V10.3953L8.1187 12.3085V13.5137C8.31453 13.363 11.4027 10.8473 11.463 10.8171V8.30139C11.3877 8.36164 10.9809 8.69306 10.4838 9.0998Z" fill="#BBBBBB"/>
</svg>
