<svg width="20" height="20" viewBox="0 0 20 20" fill="none" xmlns="http://www.w3.org/2000/svg">
<path d="M16.6666 19.3986V19.3435C16.6666 17.4702 15.3994 15.8173 13.5812 15.349C13.1129 15.2388 12.6722 15.1286 12.2038 15.0735C12.0385 15.046 11.6804 14.9358 11.6804 14.4675C11.6804 13.9991 11.6804 13.0625 11.6804 13.0625" stroke="#0B346B" stroke-width="1.2" stroke-linecap="round"/>
<path d="M8.31945 13.0625C8.31945 13.0625 8.31945 14.1093 8.31945 14.4675C8.31945 14.9633 7.87868 15.1011 7.6583 15.1286C7.18998 15.2112 6.74921 15.3214 6.30844 15.4316C4.54537 15.9275 3.33325 17.5528 3.33325 19.3986" stroke="#0B346B" stroke-width="1.2" stroke-linecap="round"/>
<path d="M6.03296 7.63672V8.51826V9.42734C6.03296 11.6036 7.79604 13.3943 9.99988 13.3943C12.1762 13.3943 13.9668 11.6312 13.9668 9.42734V8.43561V7.63672" stroke="#0B346B" stroke-width="1.2" stroke-linecap="round"/>
<path d="M15.234 8.51953V9.649V10.4203C15.234 11.3845 14.5177 12.8446 13.4434 13.368" stroke="#0B346B" stroke-width="1.2" stroke-linecap="round"/>
<path d="M15.2339 8.51794V7.30583V6.06617C15.2339 3.17362 12.8923 0.832031 9.99976 0.832031C7.10721 0.832031 4.76562 3.17362 4.76562 6.06617V7.36093V8.29756V8.93117V9.64742V11.438" stroke="#0B346B" stroke-width="1.2" stroke-linecap="round"/>
<path d="M8.62256 4.10938C9.66939 6.91928 12.2589 7.63553 13.9669 7.63553" stroke="#0B346B" stroke-width="1.2" stroke-linecap="round"/>
<path d="M8.89796 4.63281C8.89796 5.78983 6.03296 4.96339 6.03296 7.63555" stroke="#0B346B" stroke-width="1.2" stroke-linecap="round"/>
<path d="M13.4434 14.0293C13.8085 14.0293 14.1045 13.7333 14.1045 13.3682C14.1045 13.003 13.8085 12.707 13.4434 12.707C13.0782 12.707 12.7822 13.003 12.7822 13.3682C12.7822 13.7333 13.0782 14.0293 13.4434 14.0293Z" fill="#0B346B"/>
<path d="M4.73816 8.32422H4.38003C3.88417 8.32422 3.47095 8.73744 3.47095 9.26085V10.5005C3.47095 11.0239 3.88417 11.4371 4.38003 11.4371H4.73816" stroke="#0B346B" stroke-width="1.2" stroke-linecap="round"/>
<path d="M15.2614 8.32422H15.6195C16.1154 8.32422 16.5286 8.73744 16.5286 9.26085V10.5005C16.5286 11.0239 16.1154 11.4371 15.6195 11.4371H15.0134" stroke="#0B346B" stroke-width="1.2" stroke-linecap="round"/>
</svg>
