<svg width="20" height="20" viewBox="0 0 20 20" fill="none" xmlns="http://www.w3.org/2000/svg">
<path d="M18.3333 14.1014V16.6014C18.3343 16.8335 18.2867 17.0632 18.1937 17.2758C18.1008 17.4885 17.9644 17.6794 17.7934 17.8363C17.6224 17.9932 17.4205 18.1126 17.2006 18.187C16.9808 18.2613 16.7478 18.2889 16.5167 18.268C13.9523 17.9894 11.4892 17.1132 9.32498 15.7097C7.31151 14.4303 5.60443 12.7232 4.32499 10.7097C2.91663 8.53572 2.04019 6.06054 1.76665 3.48472C1.74583 3.25427 1.77321 3.02202 1.84707 2.80274C1.92092 2.58346 2.03963 2.38196 2.19562 2.21107C2.35162 2.04018 2.54149 1.90364 2.75314 1.81015C2.9648 1.71666 3.1936 1.66827 3.42499 1.66805H5.92499C6.32941 1.66407 6.72148 1.80728 7.02812 2.07099C7.33476 2.33471 7.53505 2.70092 7.59165 3.10138C7.69717 3.90144 7.89286 4.68699 8.17499 5.44305C8.2871 5.74132 8.31137 6.06548 8.24491 6.37712C8.17844 6.68875 8.02404 6.97481 7.79998 7.20138L6.74165 8.25972C7.92795 10.346 9.65536 12.0734 11.7417 13.2597L12.8 12.2014C13.0266 11.9773 13.3126 11.8229 13.6243 11.7565C13.9359 11.69 14.26 11.7143 14.5583 11.8264C15.3144 12.1085 16.0999 12.3042 16.9 12.4097C17.3048 12.4668 17.6745 12.6707 17.9388 12.9826C18.203 13.2945 18.3435 13.6927 18.3333 14.1014Z" stroke="#0B346B" stroke-width="1.5" stroke-linecap="round" stroke-linejoin="round"/>
</svg>
