<svg width="40" height="40" viewBox="0 0 40 40" fill="none" xmlns="http://www.w3.org/2000/svg">
<path d="M23.7856 6.5145V13.8429C23.7856 14.4758 23.8394 14.9405 23.9474 15.238C24.1228 15.6973 24.521 15.9263 25.1416 15.9263C25.8161 15.9263 26.5112 15.5427 27.2264 14.7732V15.7962H29.0688V6.5145H27.2268V13.6011C26.8218 14.1352 26.4376 14.4011 26.0728 14.4011C25.83 14.4011 25.6881 14.2652 25.6479 13.992C25.6343 13.9674 25.6276 13.7499 25.6276 13.3411V6.5145H23.7856Z" fill="white"/>
<path d="M19.5751 15.9265C20.5063 15.9265 21.2214 15.6104 21.7209 14.9782C22.0988 14.5196 22.2877 13.7875 22.2877 12.7832V9.52806C22.2877 8.53619 22.0988 7.81101 21.7209 7.35203C21.2214 6.71913 20.5063 6.40302 19.5751 6.40302C18.6707 6.40302 17.9623 6.71913 17.4494 7.35203C17.0715 7.81137 16.8825 8.53655 16.8825 9.52806V12.7832C16.8825 13.7757 17.0715 14.5076 17.4494 14.9782C17.962 15.6104 18.6707 15.9265 19.5751 15.9265ZM18.7045 9.19297C18.7045 8.33767 18.9948 7.90994 19.5751 7.90994C20.1551 7.90994 20.4456 8.33773 20.4456 9.19297V13.0993C20.4456 13.9677 20.1551 14.4014 19.5751 14.4014C18.9947 14.4014 18.7045 13.9677 18.7045 13.0993V9.19297Z" fill="white"/>
<path d="M14.4132 15.7961V10.7555L16.8626 3.33334H14.7978L13.4214 8.22566L11.9836 3.33334H9.83791C10.2158 4.37543 10.6543 5.53505 11.1537 6.8115C11.7879 8.52346 12.1993 9.83762 12.3886 10.7555V15.7958H14.4131V15.7961H14.4132Z" fill="white"/>
<path d="M33.3099 18.7162C32.7092 18.2206 32.0176 17.9294 31.2352 17.8419C28.7519 17.5943 25.0069 17.4698 20.0004 17.4698C14.9935 17.4698 11.2554 17.5939 8.78561 17.8419C7.98918 17.9291 7.29441 18.2206 6.70048 18.7162C6.10654 19.2132 5.71516 19.8263 5.52621 20.5581C5.17502 21.9968 5.00001 24.1663 5.00001 27.0686C5.00001 30.02 5.17541 32.1898 5.52621 33.5791C5.70155 34.3101 6.08941 34.924 6.69012 35.4203C7.29044 35.9166 7.98201 36.2016 8.76484 36.2763C11.2478 36.5364 14.9927 36.6664 20 36.6664C25.0069 36.6664 28.7519 36.5364 31.2348 36.2763C32.0173 36.2016 32.7057 35.9166 33.2995 35.4203C33.8931 34.924 34.2845 34.3101 34.4739 33.5791C34.8247 32.1403 35 29.9702 35 27.0686C35 24.1172 34.8247 21.9474 34.4739 20.5581C34.2981 19.8263 33.9102 19.2132 33.3099 18.7162ZM13.5628 22.4364H11.3968V33.0206H9.37265V22.4364H7.24732V20.6882H13.5633V22.4364H13.5628ZM19.0282 33.0206H17.2265V32.0155C16.4978 32.7719 15.8094 33.1506 15.1616 33.1506C14.5406 33.1506 14.1496 32.9209 13.9874 32.4624C13.8793 32.1646 13.8255 31.7127 13.8255 31.1042V23.8312H15.6273V30.6025C15.6273 30.9991 15.634 31.2163 15.6476 31.2533C15.6882 31.5134 15.8298 31.6434 16.0729 31.6434C16.4373 31.6434 16.8219 31.3834 17.2269 30.8622V23.8312H19.0286V33.0206H19.0282ZM25.911 30.2677C25.911 31.1731 25.8503 31.7928 25.7288 32.1276C25.4992 32.8093 25.0204 33.1506 24.2914 33.1506C23.6437 33.1506 23.0162 32.8093 22.4088 32.1276V33.0206H20.6071V20.6882H22.4088V24.7245C22.9888 24.0552 23.6166 23.7201 24.2914 23.7201C25.0201 23.7201 25.4992 24.0674 25.7288 24.7614C25.8503 25.0841 25.911 25.698 25.911 26.6034V30.2677ZM32.7531 28.7424H29.1297V30.3607C29.1297 31.2166 29.4398 31.6437 30.0609 31.6437C30.5061 31.6437 30.7759 31.4207 30.8704 30.9745C30.8971 30.8504 30.9111 30.4724 30.9111 29.8395H32.7531V30.0815C32.7531 30.6895 32.7395 31.0485 32.7124 31.1606C32.6717 31.4958 32.5302 31.8298 32.2875 32.1649C31.8016 32.8216 31.073 33.1509 30.1012 33.1509C29.17 33.1509 28.441 32.8348 27.9148 32.2019C27.5234 31.7434 27.3277 31.0247 27.3277 30.0446V26.8265C27.3277 25.8471 27.5166 25.1277 27.8945 24.6684C28.4206 24.0362 29.1425 23.7201 30.0605 23.7201C30.9646 23.7201 31.68 24.0361 32.2062 24.6684C32.5705 25.1277 32.7527 25.847 32.7527 26.8265V28.7424H32.7531Z" fill="white"/>
<path d="M30.0405 25.2263C29.4331 25.2263 29.1298 25.6483 29.1298 26.4914V27.3474H30.9518V26.4914C30.9513 25.6486 30.648 25.2263 30.0405 25.2263Z" fill="white"/>
<path d="M23.32 25.2263C23.0094 25.2263 22.7057 25.3629 22.4092 25.6362V31.2346C22.7058 31.5078 23.0095 31.6437 23.32 31.6437C23.8461 31.6437 24.1096 31.2287 24.1096 30.3977V26.4731C24.1092 25.642 23.8461 25.2263 23.32 25.2263Z" fill="white"/>
</svg>
