<svg width="40" height="40" viewBox="0 0 40 40" fill="none" xmlns="http://www.w3.org/2000/svg">
<path d="M13.4365 36.639C11.4522 36.639 9.46065 36.7078 7.47636 36.6314C5.12865 36.5321 3.33334 34.4619 3.33334 31.9944C3.33334 24.0267 3.34787 16.059 3.33334 8.08362C3.33334 5.35641 5.36124 3.45425 7.69441 3.38549C10.1366 3.31674 12.5861 3.37022 15.0356 3.37022C15.0792 3.37022 15.1373 3.3473 15.1591 3.42369C15.1446 3.5612 15.0138 3.57647 14.9338 3.62995C13.4946 4.5161 12.1791 5.57795 11.0742 6.8919C9.24987 9.06144 7.98515 11.5518 7.55631 14.4471C6.80039 19.5577 8.3195 23.8968 11.7575 27.5178C12.368 28.1671 12.448 28.6713 11.961 29.5422C11.3723 30.5888 10.4782 31.2992 9.52607 31.9486C9.42431 32.0097 9.32255 32.0861 9.22079 32.1548C9.06815 32.2923 9.16264 32.3611 9.29348 32.4222C9.32255 32.4909 9.35889 32.5521 9.4025 32.6132C10.2384 33.3924 11.0306 34.225 11.852 35.0195C12.2372 35.3938 12.6224 35.7835 12.9931 36.173C13.1458 36.3182 13.4002 36.364 13.4365 36.639Z" fill="white"/>
<path d="M13.4368 36.6363C13.4004 36.369 13.146 36.3231 12.9934 36.1627C12.6227 35.7655 12.2375 35.3835 11.8522 35.0092C11.0309 34.2147 10.2386 33.382 9.40275 32.6028C9.35914 32.5417 9.3228 32.4806 9.29372 32.4119C11.1472 32.7938 12.957 32.5341 14.7378 31.9611C15.3411 31.7702 15.9444 31.5792 16.5549 31.4188C16.9692 31.3042 17.4053 31.3271 17.8051 31.4799C22.4133 33.1452 26.9634 32.9924 31.4407 30.9298C33.2651 30.0819 34.9296 28.8902 36.3397 27.4005C36.4124 27.3241 36.4633 27.2095 36.5941 27.2019C36.6595 27.3089 36.6232 27.4234 36.6232 27.538V32.007C36.6377 34.5585 34.6898 36.6363 32.2621 36.6593H32.2257C29.6091 36.6745 26.9924 36.6593 24.3758 36.6593H13.8729C13.7275 36.644 13.5821 36.6363 13.4368 36.6363Z" fill="white"/>
<path d="M14.5704 19.5422C15.668 19.5422 16.7001 19.5346 17.725 19.5422C18.2992 19.5498 18.6117 19.8019 18.6699 20.2832C18.7353 20.8867 18.4009 21.2916 17.7758 21.2992C16.5983 21.3145 15.4281 21.3069 14.2506 21.3069C13.909 21.3069 13.5747 21.3222 13.233 21.2992C12.8115 21.2763 12.3972 21.1846 12.1937 20.7263C11.9901 20.2679 12.1355 19.8554 12.4117 19.4811C13.531 17.9838 14.6577 16.4789 15.7843 14.9816C15.8497 14.8899 15.9151 14.7982 15.9805 14.7142C15.9078 14.5844 15.8061 14.6455 15.7189 14.6378C14.9339 14.6302 14.1416 14.6378 13.3566 14.6302C13.1749 14.6302 12.9932 14.6073 12.8187 14.5691C12.4044 14.4698 12.15 14.0343 12.2445 13.6065C12.3099 13.3162 12.528 13.0794 12.8042 13.0107C12.9786 12.9648 13.1604 12.9419 13.3421 12.9419C14.6359 12.9343 15.9369 12.9343 17.2307 12.9419C17.4633 12.9343 17.6886 12.9648 17.9139 13.0259C18.4082 13.2017 18.619 13.6829 18.4227 14.1871C18.2483 14.6225 17.9721 14.9969 17.6959 15.3712C16.7437 16.6469 15.7915 17.9151 14.8394 19.1755C14.7594 19.2748 14.6867 19.3741 14.5704 19.5422Z" fill="white"/>
<path d="M23.0019 15.523C23.1763 15.2862 23.358 15.0647 23.656 15.0035C24.2302 14.8813 24.7681 15.2709 24.7754 15.8821C24.7972 17.4099 24.7899 18.9377 24.7754 20.4656C24.7754 20.8628 24.5283 21.2142 24.1721 21.3288C23.8087 21.474 23.3944 21.3594 23.1545 21.0309C23.031 20.8705 22.9801 20.8399 22.8056 20.9851C22.1442 21.5504 21.3955 21.6497 20.5887 21.3747C19.295 20.9316 18.7644 19.8697 18.619 18.5787C18.4664 17.1807 18.9097 15.989 20.1018 15.2556C21.0903 14.6369 22.0933 14.6903 23.0019 15.523ZM20.4288 18.3113C20.4434 18.6475 20.5451 18.9683 20.7341 19.2357C21.1266 19.7857 21.8753 19.9003 22.4059 19.4878C22.4931 19.419 22.573 19.335 22.6457 19.2357C23.0528 18.6551 23.0528 17.7002 22.6457 17.1196C22.4422 16.8217 22.1224 16.646 21.7808 16.6383C20.9812 16.5849 20.4216 17.2342 20.4288 18.3113ZM28.0389 18.3572C27.9808 16.3939 29.2091 14.9272 30.9536 14.8737C32.807 14.8126 34.159 16.1189 34.2171 18.0287C34.2753 19.9614 33.1487 21.3288 31.4115 21.5122C29.5144 21.7108 28.0098 20.267 28.0389 18.3572ZM29.8633 18.1738C29.8488 18.5558 29.9578 18.9301 30.1759 19.2433C30.5756 19.7933 31.3243 19.9003 31.8476 19.4725C31.9276 19.4114 31.993 19.335 32.0584 19.2586C32.48 18.678 32.48 17.7002 32.0657 17.1196C31.8621 16.8293 31.5423 16.646 31.2007 16.6383C30.4157 16.5925 29.8633 17.2189 29.8633 18.1738ZM27.3993 16.837C27.3993 18.021 27.4066 19.2051 27.3993 20.3892C27.4066 20.9316 26.9995 21.3823 26.4835 21.3976C26.3963 21.3976 26.3018 21.3899 26.2145 21.367C25.8511 21.2677 25.5749 20.8628 25.5749 20.3816V14.3084C25.5749 13.9493 25.5676 13.5979 25.5749 13.2389C25.5822 12.6507 25.9383 12.2687 26.4762 12.2687C27.0286 12.2611 27.3993 12.643 27.3993 13.2542C27.4066 14.4459 27.3993 15.6452 27.3993 16.837Z" fill="white"/>
<path d="M8.09436 3.64035H31.9422C34.4019 3.64035 36.4167 5.73957 36.4167 8.35585V31.5027C36.4167 34.119 34.4019 36.2182 31.9422 36.2182H8.09436C5.63463 36.2182 3.61986 34.119 3.61986 31.5027V8.35585C3.61986 5.73957 5.63463 3.64035 8.09436 3.64035Z" stroke="white" stroke-width="0.5" stroke-miterlimit="10"/>
</svg>
