<svg width="71" height="25" viewBox="0 0 71 25" fill="none" xmlns="http://www.w3.org/2000/svg">
<path d="M0 12.5C0 5.59644 5.59644 0 12.5 0L58.5 0C65.4036 0 71 5.59644 71 12.5C71 19.4036 65.4036 25 58.5 25H12.5C5.59644 25 0 19.4036 0 12.5Z" fill="#F2FAFF"/>
<path d="M31.684 17.12C31.26 17.12 30.86 17.06 30.484 16.94C30.108 16.82 29.764 16.64 29.452 16.4C29.14 16.16 28.864 15.864 28.624 15.512L29.272 14.792C29.648 15.328 30.032 15.704 30.424 15.92C30.824 16.136 31.272 16.244 31.768 16.244C32.128 16.244 32.456 16.184 32.752 16.064C33.048 15.944 33.28 15.776 33.448 15.56C33.616 15.344 33.7 15.096 33.7 14.816C33.7 14.632 33.668 14.468 33.604 14.324C33.548 14.18 33.46 14.052 33.34 13.94C33.22 13.828 33.072 13.728 32.896 13.64C32.72 13.552 32.516 13.472 32.284 13.4C32.06 13.328 31.808 13.256 31.528 13.184C31.12 13.088 30.76 12.976 30.448 12.848C30.144 12.712 29.884 12.548 29.668 12.356C29.46 12.164 29.3 11.944 29.188 11.696C29.084 11.44 29.032 11.14 29.032 10.796C29.032 10.468 29.1 10.164 29.236 9.884C29.38 9.604 29.576 9.364 29.824 9.164C30.072 8.956 30.364 8.796 30.7 8.684C31.036 8.572 31.396 8.516 31.78 8.516C32.212 8.516 32.596 8.576 32.932 8.696C33.276 8.808 33.58 8.976 33.844 9.2C34.108 9.424 34.336 9.692 34.528 10.004L33.868 10.652C33.7 10.388 33.508 10.16 33.292 9.968C33.084 9.776 32.852 9.632 32.596 9.536C32.348 9.432 32.072 9.38 31.768 9.38C31.416 9.38 31.104 9.44 30.832 9.56C30.568 9.68 30.36 9.848 30.208 10.064C30.056 10.272 29.98 10.512 29.98 10.784C29.98 10.984 30.016 11.164 30.088 11.324C30.16 11.476 30.272 11.612 30.424 11.732C30.584 11.844 30.788 11.948 31.036 12.044C31.292 12.132 31.596 12.216 31.948 12.296C32.364 12.392 32.736 12.508 33.064 12.644C33.4 12.78 33.684 12.944 33.916 13.136C34.156 13.32 34.336 13.536 34.456 13.784C34.584 14.032 34.648 14.316 34.648 14.636C34.648 15.132 34.524 15.568 34.276 15.944C34.028 16.312 33.68 16.6 33.232 16.808C32.792 17.016 32.276 17.12 31.684 17.12ZM36.1768 17V8.12H37.0768V12.104L36.8968 12.284C36.9848 11.956 37.1488 11.668 37.3888 11.42C37.6288 11.164 37.9088 10.964 38.2288 10.82C38.5568 10.676 38.8888 10.604 39.2248 10.604C39.7048 10.604 40.1048 10.696 40.4248 10.88C40.7448 11.064 40.9808 11.348 41.1328 11.732C41.2928 12.116 41.3728 12.604 41.3728 13.196V17H40.4608V13.244C40.4608 12.828 40.4048 12.488 40.2928 12.224C40.1888 11.952 40.0248 11.752 39.8008 11.624C39.5768 11.496 39.2968 11.436 38.9608 11.444C38.6968 11.444 38.4488 11.492 38.2168 11.588C37.9848 11.676 37.7848 11.8 37.6168 11.96C37.4488 12.12 37.3168 12.304 37.2208 12.512C37.1248 12.72 37.0768 12.944 37.0768 13.184V17H36.6328C36.5768 17 36.5128 17 36.4408 17C36.3688 17 36.2808 17 36.1768 17ZM45.5388 17.12C44.9948 17.12 44.5028 16.98 44.0628 16.7C43.6228 16.412 43.2748 16.024 43.0188 15.536C42.7628 15.04 42.6348 14.48 42.6348 13.856C42.6348 13.224 42.7668 12.664 43.0308 12.176C43.2948 11.688 43.6468 11.304 44.0868 11.024C44.5348 10.744 45.0348 10.604 45.5868 10.604C45.9148 10.604 46.2188 10.652 46.4988 10.748C46.7788 10.844 47.0268 10.98 47.2428 11.156C47.4668 11.324 47.6508 11.524 47.7948 11.756C47.9468 11.98 48.0508 12.224 48.1068 12.488L47.8428 12.356L47.8788 10.736H48.7788V17H47.8668V15.464L48.1068 15.308C48.0508 15.548 47.9428 15.78 47.7828 16.004C47.6228 16.22 47.4268 16.412 47.1948 16.58C46.9708 16.748 46.7148 16.88 46.4268 16.976C46.1468 17.072 45.8508 17.12 45.5388 17.12ZM45.7428 16.256C46.1588 16.256 46.5308 16.156 46.8588 15.956C47.1868 15.748 47.4428 15.464 47.6268 15.104C47.8188 14.736 47.9148 14.32 47.9148 13.856C47.9148 13.392 47.8188 12.98 47.6268 12.62C47.4428 12.26 47.1868 11.976 46.8588 11.768C46.5308 11.56 46.1588 11.456 45.7428 11.456C45.3188 11.456 44.9428 11.56 44.6148 11.768C44.2948 11.976 44.0388 12.26 43.8468 12.62C43.6628 12.98 43.5708 13.392 43.5708 13.856C43.5708 14.312 43.6628 14.724 43.8468 15.092C44.0308 15.452 44.2868 15.736 44.6148 15.944C44.9428 16.152 45.3188 16.256 45.7428 16.256ZM50.5323 17V10.736H51.4323L51.4563 12.404L51.3603 12.176C51.4483 11.896 51.5883 11.636 51.7803 11.396C51.9803 11.156 52.2163 10.964 52.4883 10.82C52.7603 10.676 53.0603 10.604 53.3883 10.604C53.5243 10.604 53.6523 10.616 53.7723 10.64C53.8923 10.656 53.9923 10.68 54.0723 10.712L53.8203 11.72C53.7163 11.672 53.6083 11.64 53.4963 11.624C53.3923 11.6 53.2923 11.588 53.1963 11.588C52.9243 11.588 52.6803 11.636 52.4643 11.732C52.2483 11.828 52.0643 11.964 51.9123 12.14C51.7603 12.308 51.6443 12.504 51.5643 12.728C51.4843 12.952 51.4443 13.192 51.4443 13.448V17H50.5323ZM57.4993 17.12C56.8753 17.12 56.3193 16.984 55.8313 16.712C55.3513 16.44 54.9753 16.06 54.7033 15.572C54.4313 15.084 54.2953 14.524 54.2953 13.892C54.2953 13.404 54.3713 12.964 54.5233 12.572C54.6753 12.172 54.8873 11.824 55.1593 11.528C55.4393 11.232 55.7713 11.004 56.1553 10.844C56.5393 10.676 56.9553 10.592 57.4033 10.592C57.8273 10.592 58.2113 10.668 58.5553 10.82C58.9073 10.972 59.2073 11.184 59.4553 11.456C59.7113 11.72 59.9033 12.036 60.0313 12.404C60.1593 12.772 60.2153 13.176 60.1993 13.616L60.1873 14.036H54.9673L54.8353 13.28H59.5033L59.2873 13.484V13.196C59.2713 12.908 59.1873 12.632 59.0353 12.368C58.8833 12.096 58.6673 11.876 58.3873 11.708C58.1153 11.54 57.7873 11.456 57.4033 11.456C56.9553 11.456 56.5673 11.548 56.2393 11.732C55.9113 11.908 55.6593 12.172 55.4833 12.524C55.3073 12.876 55.2193 13.312 55.2193 13.832C55.2193 14.328 55.3153 14.76 55.5073 15.128C55.6993 15.488 55.9713 15.768 56.3233 15.968C56.6833 16.168 57.1153 16.268 57.6193 16.268C57.9153 16.268 58.2073 16.22 58.4953 16.124C58.7913 16.02 59.1153 15.82 59.4673 15.524L59.9353 16.172C59.7513 16.356 59.5313 16.52 59.2753 16.664C59.0193 16.8 58.7393 16.912 58.4353 17C58.1313 17.08 57.8193 17.12 57.4993 17.12Z" fill="#2AA3EF"/>
<circle cx="12.5" cy="12.5" r="11.5" fill="#2AA3EF"/>
<path fill-rule="evenodd" clip-rule="evenodd" d="M17.2181 9.57544C16.8712 9.72933 16.4976 9.83339 16.1062 9.88048C16.5059 9.64061 16.8129 9.26163 16.9572 8.80981C16.5831 9.03161 16.169 9.19263 15.7276 9.27916C15.3746 8.90291 14.8716 8.66797 14.3149 8.66797C13.2457 8.66797 12.3786 9.53436 12.3786 10.6034C12.3786 10.7556 12.3964 10.903 12.4291 11.0448C10.8204 10.9643 9.39429 10.1932 8.43949 9.0223C8.2724 9.30818 8.17747 9.64061 8.17747 9.99549C8.17747 10.6669 8.51942 11.2595 9.03846 11.6062C8.72093 11.5963 8.42228 11.5092 8.16193 11.3641C8.16193 11.3723 8.16193 11.3805 8.16193 11.3887C8.16193 12.3263 8.82862 13.1084 9.71459 13.2864C9.55194 13.3307 9.38152 13.3543 9.20444 13.3543C9.08009 13.3543 8.95852 13.3422 8.84028 13.3192C9.08675 14.0881 9.80175 14.6478 10.6489 14.6637C9.98605 15.1824 9.15115 15.4918 8.24408 15.4918C8.0881 15.4918 7.93377 15.483 7.78223 15.465C8.63877 16.0143 9.65631 16.3346 10.7499 16.3346C14.3104 16.3346 16.2578 13.3855 16.2578 10.8279C16.2578 10.7436 16.2555 10.6609 16.2522 10.5777C16.6303 10.3049 16.9589 9.96373 17.2181 9.57599V9.57544Z" fill="white"/>
</svg>
